<?xml version="1.0" encoding="UTF-8" standalone="no"?><svg xmlns="http://www.w3.org/2000/svg" xmlns:xlink="http://www.w3.org/1999/xlink" contentStyleType="text/css" height="1471px" preserveAspectRatio="none" style="width:1695px;height:1471px;background:#FFFFFF;" version="1.1" viewBox="0 0 1695 1471" width="1695px" zoomAndPan="magnify"><defs/><g><!--MD5=[8a590fff8ff314c53773aaff08869084]
cluster Gnokky--><g id="cluster_Gnokky"><rect fill="none" height="1458" rx="2.5" ry="2.5" style="stroke:#181818;stroke-width:1.0;" width="1595" x="94" y="7"/><text fill="#000000" font-family="sans-serif" font-size="14" font-weight="bold" lengthAdjust="spacing" textLength="52" x="865.5" y="23.5332">Gnokky</text></g><g id="elem_Open application"><ellipse cx="203.5768" cy="521.9154" fill="#527BC6" rx="90.0768" ry="20.4154" style="stroke:#000000;stroke-width:0.5;"/><text fill="#FFFFFF" font-family="sans-serif" font-size="17" lengthAdjust="spacing" textLength="122" x="139.5768" y="527.9891">Open application</text></g><g id="elem_Watch Report List"><ellipse cx="203.4357" cy="213.0871" fill="#527BC6" rx="93.4357" ry="21.0871" style="stroke:#000000;stroke-width:0.5;"/><text fill="#FFFFFF" font-family="sans-serif" font-size="17" lengthAdjust="spacing" textLength="131" x="134.9357" y="219.1609">Watch Report List</text></g><g id="elem_Ban user"><ellipse cx="464.1394" cy="212.89" fill="#527BC6" rx="59.1394" ry="18.39" style="stroke:#000000;stroke-width:0.5;"/><text fill="#FFFFFF" font-family="sans-serif" font-size="17" lengthAdjust="spacing" textLength="66" x="428.1394" y="218.9637">Ban user</text></g><g id="elem_Register"><ellipse cx="464.1733" cy="593.8461" fill="#527BC6" rx="54.6733" ry="18.3461" style="stroke:#000000;stroke-width:0.5;"/><text fill="#FFFFFF" font-family="sans-serif" font-size="17" lengthAdjust="spacing" textLength="60" x="431.1733" y="599.9198">Register</text></g><g id="elem_Login"><ellipse cx="463.8377" cy="522.148" fill="#527BC6" rx="39.8377" ry="18.148" style="stroke:#000000;stroke-width:0.5;"/><text fill="#FFFFFF" font-family="sans-serif" font-size="17" lengthAdjust="spacing" textLength="40" x="442.2539" y="527.7553">Login</text></g><g id="elem_Home Page"><ellipse cx="699.2852" cy="521.9938" fill="#527BC6" rx="73.2852" ry="18.4938" style="stroke:#000000;stroke-width:0.5;"/><text fill="#FFFFFF" font-family="sans-serif" font-size="17" lengthAdjust="spacing" textLength="85" x="653.7852" y="528.0675">Home Page</text></g><g id="elem_Stories Section"><ellipse cx="973.6181" cy="1282.1236" fill="#527BC6" rx="86.1181" ry="19.6236" style="stroke:#000000;stroke-width:0.5;"/><text fill="#FFFFFF" font-family="sans-serif" font-size="17" lengthAdjust="spacing" textLength="111" x="915.1181" y="1288.1973">Stories Section</text></g><g id="elem_Posts Section"><ellipse cx="973.3433" cy="941.8687" fill="#527BC6" rx="82.3433" ry="18.8687" style="stroke:#000000;stroke-width:0.5;"/><text fill="#FFFFFF" font-family="sans-serif" font-size="17" lengthAdjust="spacing" textLength="100" x="920.3433" y="947.9424">Posts Section</text></g><g id="elem_Profile Page"><ellipse cx="973.5084" cy="638.0148" fill="#527BC6" rx="77.0084" ry="18.5148" style="stroke:#000000;stroke-width:0.5;"/><text fill="#FFFFFF" font-family="sans-serif" font-size="17" lengthAdjust="spacing" textLength="90" x="925.5084" y="644.0885">Profile Page</text></g><g id="elem_Notification Page"><ellipse cx="973.3144" cy="522.0629" fill="#527BC6" rx="90.8144" ry="20.5629" style="stroke:#000000;stroke-width:0.5;"/><text fill="#FFFFFF" font-family="sans-serif" font-size="17" lengthAdjust="spacing" textLength="124" x="908.3144" y="528.1366">Notification Page</text></g><g id="elem_Search Page"><ellipse cx="973.5215" cy="443.1043" fill="#527BC6" rx="81.0215" ry="18.6043" style="stroke:#000000;stroke-width:0.5;"/><text fill="#FFFFFF" font-family="sans-serif" font-size="17" lengthAdjust="spacing" textLength="96" x="922.5215" y="449.178">Search Page</text></g><g id="elem_Message Page"><ellipse cx="973.5692" cy="289.9138" fill="#527BC6" rx="85.0692" ry="19.4138" style="stroke:#000000;stroke-width:0.5;"/><text fill="#FFFFFF" font-family="sans-serif" font-size="17" lengthAdjust="spacing" textLength="108" x="916.5692" y="295.9876">Message Page</text></g><g id="elem_Create Post Page"><ellipse cx="973.6806" cy="136.9361" fill="#527BC6" rx="92.6806" ry="20.9361" style="stroke:#000000;stroke-width:0.5;"/><text fill="#FFFFFF" font-family="sans-serif" font-size="17" lengthAdjust="spacing" textLength="129" x="906.1806" y="143.0099">Create Post Page</text></g><g id="elem_Management Profile"><ellipse cx="1286.3468" cy="598.1694" fill="#527BC6" rx="98.8468" ry="22.1694" style="stroke:#000000;stroke-width:0.5;"/><text fill="#FFFFFF" font-family="sans-serif" font-size="17" lengthAdjust="spacing" textLength="145" x="1210.8468" y="604.2431">Management Profile</text></g><g id="elem_Settings"><ellipse cx="1286.6848" cy="747.8299" fill="#527BC6" rx="53.1848" ry="18.3299" style="stroke:#000000;stroke-width:0.5;"/><text fill="#FFFFFF" font-family="sans-serif" font-size="17" lengthAdjust="spacing" textLength="58" x="1254.6848" y="753.9036">Settings</text></g><g id="elem_Badge Section"><ellipse cx="1286.7228" cy="674.8446" fill="#527BC6" rx="84.7228" ry="19.3446" style="stroke:#000000;stroke-width:0.5;"/><text fill="#FFFFFF" font-family="sans-serif" font-size="17" lengthAdjust="spacing" textLength="107" x="1230.2228" y="680.9183">Badge Section</text></g><g id="elem_Statistic Badge"><ellipse cx="1587.4173" cy="674.9835" fill="#527BC6" rx="85.4173" ry="19.4835" style="stroke:#000000;stroke-width:0.5;"/><text fill="#FFFFFF" font-family="sans-serif" font-size="17" lengthAdjust="spacing" textLength="109" x="1529.9173" y="681.0572">Statistic Badge</text></g><g id="elem_Notification"><ellipse cx="1286.3068" cy="521.9754" fill="#527BC6" rx="70.3068" ry="18.4754" style="stroke:#000000;stroke-width:0.5;"/><text fill="#FFFFFF" font-family="sans-serif" font-size="17" lengthAdjust="spacing" textLength="81" x="1242.8068" y="528.0491">Notification</text></g><g id="elem_Searh Bar"><ellipse cx="1286.3396" cy="363.9447" fill="#527BC6" rx="65.8396" ry="18.4447" style="stroke:#000000;stroke-width:0.5;"/><text fill="#FFFFFF" font-family="sans-serif" font-size="17" lengthAdjust="spacing" textLength="75" x="1245.8396" y="370.0184">Searh Bar</text></g><g id="elem_History Profile Searched"><ellipse cx="1286.7388" cy="442.9478" fill="#527BC6" rx="112.7388" ry="24.9478" style="stroke:#000000;stroke-width:0.5;"/><text fill="#FFFFFF" font-family="sans-serif" font-size="17" lengthAdjust="spacing" textLength="179" x="1194.2388" y="449.0215">History Profile Searched</text></g><g id="elem_List of Last Chats"><ellipse cx="1286.5571" cy="214.2114" fill="#527BC6" rx="91.5571" ry="20.7114" style="stroke:#000000;stroke-width:0.5;"/><text fill="#FFFFFF" font-family="sans-serif" font-size="17" lengthAdjust="spacing" textLength="126" x="1220.5571" y="220.2852">List of Last Chats</text></g><g id="elem_Write a Message"><ellipse cx="1286.3144" cy="290.0629" fill="#527BC6" rx="90.8144" ry="20.5629" style="stroke:#000000;stroke-width:0.5;"/><text fill="#FFFFFF" font-family="sans-serif" font-size="17" lengthAdjust="spacing" textLength="124" x="1221.3144" y="296.1366">Write a Message</text></g><g id="elem_Upload photo"><ellipse cx="1286.6956" cy="62.0391" fill="#527BC6" rx="80.6956" ry="18.5391" style="stroke:#000000;stroke-width:0.5;"/><text fill="#FFFFFF" font-family="sans-serif" font-size="17" lengthAdjust="spacing" textLength="95" x="1236.1956" y="68.1129">Upload photo</text></g><g id="elem_Write a text to post"><ellipse cx="1286.3437" cy="136.9687" fill="#527BC6" rx="95.3437" ry="21.4687" style="stroke:#000000;stroke-width:0.5;"/><text fill="#FFFFFF" font-family="sans-serif" font-size="17" lengthAdjust="spacing" textLength="136" x="1215.3437" y="143.0425">Write a text to post</text></g><g id="elem_Like Story"><ellipse cx="1286.595" cy="1355.9391" fill="#527BC6" rx="65.095" ry="18.4391" style="stroke:#000000;stroke-width:0.5;"/><text fill="#FFFFFF" font-family="sans-serif" font-size="17" lengthAdjust="spacing" textLength="74" x="1246.595" y="1362.0129">Like Story</text></g><g id="elem_Respond to Story"><ellipse cx="1286.5571" cy="1282.2114" fill="#527BC6" rx="91.5571" ry="20.7114" style="stroke:#000000;stroke-width:0.5;"/><text fill="#FFFFFF" font-family="sans-serif" font-size="17" lengthAdjust="spacing" textLength="126" x="1220.5571" y="1288.2852">Respond to Story</text></g><g id="elem_Send Story to Someone"><ellipse cx="1286.64" cy="1202.028" fill="#527BC6" rx="110.64" ry="24.528" style="stroke:#000000;stroke-width:0.5;"/><text fill="#FFFFFF" font-family="sans-serif" font-size="17" lengthAdjust="spacing" textLength="174" x="1196.64" y="1208.1017">Send Story to Someone</text></g><g id="elem_Create a Story"><ellipse cx="1286.7228" cy="1428.8446" fill="#527BC6" rx="84.7228" ry="19.3446" style="stroke:#000000;stroke-width:0.5;"/><text fill="#FFFFFF" font-family="sans-serif" font-size="17" lengthAdjust="spacing" textLength="107" x="1230.2228" y="1434.9183">Create a Story</text></g><g id="elem_Like Post"><ellipse cx="1286.3838" cy="1049.8967" fill="#527BC6" rx="59.8838" ry="18.3967" style="stroke:#000000;stroke-width:0.5;"/><text fill="#FFFFFF" font-family="sans-serif" font-size="17" lengthAdjust="spacing" textLength="67" x="1249.8838" y="1055.9704">Like Post</text></g><g id="elem_Comment Post"><ellipse cx="1286.3779" cy="976.7756" fill="#527BC6" rx="84.3779" ry="19.2756" style="stroke:#000000;stroke-width:0.5;"/><text fill="#FFFFFF" font-family="sans-serif" font-size="17" lengthAdjust="spacing" textLength="106" x="1230.3779" y="982.8493">Comment Post</text></g><g id="elem_Repost Post"><ellipse cx="1286.2745" cy="904.0024" fill="#527BC6" rx="74.7745" ry="18.5024" style="stroke:#000000;stroke-width:0.5;"/><text fill="#FFFFFF" font-family="sans-serif" font-size="17" lengthAdjust="spacing" textLength="87" x="1239.7745" y="910.0762">Repost Post</text></g><g id="elem_Send Post to Someone"><ellipse cx="1286.7311" cy="825.9462" fill="#527BC6" rx="107.7311" ry="23.9462" style="stroke:#000000;stroke-width:0.5;"/><text fill="#FFFFFF" font-family="sans-serif" font-size="17" lengthAdjust="spacing" textLength="167" x="1200.2311" y="832.02">Send Post to Someone</text></g><g id="elem_Report System"><ellipse cx="1286.7228" cy="1122.8446" fill="#527BC6" rx="84.7228" ry="19.3446" style="stroke:#000000;stroke-width:0.5;"/><text fill="#FFFFFF" font-family="sans-serif" font-size="17" lengthAdjust="spacing" textLength="107" x="1230.2228" y="1128.9183">Report System</text></g><!--MD5=[97ab183161fd5d1db7fba7485cf76add]
entity Admin--><g id="elem_Admin"><ellipse cx="26.5" cy="182.5" fill="#F1F1F1" rx="8" ry="8" style="stroke:#181818;stroke-width:0.5;"/><path d="M26.5,190.5 L26.5,217.5 M13.5,198.5 L39.5,198.5 M26.5,217.5 L13.5,232.5 M26.5,217.5 L39.5,232.5 " fill="none" style="stroke:#181818;stroke-width:0.5;"/><text fill="#000000" font-family="sans-serif" font-size="14" lengthAdjust="spacing" textLength="39" x="7" y="248.5332">Admin</text></g><!--MD5=[51dc34f6dea4a16405cfeb18503da005]
entity Utente--><g id="elem_Utente"><ellipse cx="26.5" cy="491.5" fill="#F1F1F1" rx="8" ry="8" style="stroke:#181818;stroke-width:0.5;"/><path d="M26.5,499.5 L26.5,526.5 M13.5,507.5 L39.5,507.5 M26.5,526.5 L13.5,541.5 M26.5,526.5 L39.5,541.5 " fill="none" style="stroke:#181818;stroke-width:0.5;"/><text fill="#000000" font-family="sans-serif" font-size="14" lengthAdjust="spacing" textLength="41" x="6" y="557.5332">Utente</text></g><!--MD5=[2466c8b60304e468ca49d12cd109dde9]
link Utente to Open application--><g id="link_Utente_Open application"><path d="M47.23,522 C62.53,522 84.93,522 107.99,522 " fill="none" id="Utente-to-Open application" style="stroke:#000000;stroke-width:1.0;"/><polygon fill="#000000" points="113.23,522,104.23,518,108.23,522,104.23,526,113.23,522" style="stroke:#000000;stroke-width:1.0;"/></g><!--MD5=[789acaef0ad1fe8cdfafc07db6013709]
link Admin to Watch Report List--><g id="link_Admin_Watch Report List"><path d="M46.23,213 C60.82,213 82.3,213 104.7,213 " fill="none" id="Admin-to-Watch Report List" style="stroke:#000000;stroke-width:1.0;"/><polygon fill="#000000" points="109.8,213,100.8,209,104.8,213,100.8,217,109.8,213" style="stroke:#000000;stroke-width:1.0;"/></g><!--MD5=[f037d3cb4c87cc2d7b5ee6f0c89f8b48]
reverse link Watch Report List to Ban user--><g id="link_Watch Report List_Ban user"><path d="M302.17,213 C336.76,213 374.56,213 404.82,213 " fill="none" id="Watch Report List-backto-Ban user" style="stroke:#000000;stroke-width:1.0;stroke-dasharray:7.0,7.0;"/><polygon fill="#000000" points="297.09,213,306.09,217,302.09,213,306.09,209,297.09,213" style="stroke:#000000;stroke-width:1.0;"/><text fill="#000000" font-family="sans-serif" font-size="13" lengthAdjust="spacing" textLength="46" x="328" y="209.4951">extends</text></g><!--MD5=[79e65c84ee5db80d211106fed2a5cce1]
reverse link Open application to Register--><g id="link_Open application_Register"><path d="M266.1,539.16 C314.04,552.51 379.25,570.67 421.24,582.37 " fill="none" id="Open application-backto-Register" style="stroke:#000000;stroke-width:1.0;stroke-dasharray:7.0,7.0;"/><polygon fill="#000000" points="261.23,537.8,268.8244,544.071,266.0462,539.1434,270.9738,536.3652,261.23,537.8" style="stroke:#000000;stroke-width:1.0;"/><text fill="#000000" font-family="sans-serif" font-size="13" lengthAdjust="spacing" textLength="46" x="328" y="554.4951">extends</text></g><!--MD5=[28634a6aed9432485a6ec43e6369db91]
reverse link Open application to Login--><g id="link_Open application_Login"><path d="M299.05,522 C342.17,522 390.85,522 423.89,522 " fill="none" id="Open application-backto-Login" style="stroke:#000000;stroke-width:1.0;stroke-dasharray:7.0,7.0;"/><polygon fill="#000000" points="293.82,522,302.82,526,298.82,522,302.82,518,293.82,522" style="stroke:#000000;stroke-width:1.0;"/><text fill="#000000" font-family="sans-serif" font-size="13" lengthAdjust="spacing" textLength="46" x="328" y="518.4951">extends</text></g><!--MD5=[866d5f9068f27a70cf600be37b9ef7f2]
reverse link Open application to Home Page--><g id="link_Open application_Home Page"><path d="M272.52,506.53 C290.21,502.79 309.27,499.01 327,496 C444.87,475.97 478.65,473.15 596,496 C613.57,499.42 632.62,504.01 649.48,508.38 " fill="none" id="Open application-backto-Home Page" style="stroke:#000000;stroke-width:1.0;stroke-dasharray:7.0,7.0;"/><polygon fill="#000000" points="267.58,507.58,277.2155,509.6189,272.4705,506.5392,275.5502,501.7941,267.58,507.58" style="stroke:#000000;stroke-width:1.0;"/><text fill="#000000" font-family="sans-serif" font-size="13" lengthAdjust="spacing" textLength="46" x="441" y="476.4951">extends</text></g><!--MD5=[9edf4f8c7b88f2bbfc72ab533a2026ff]
link Register to Home Page--><g id="link_Register_Home Page"><path d="M504.87,581.7 C544.26,569.56 604.65,550.94 647.5,537.73 " fill="none" id="Register-to-Home Page" style="stroke:#000000;stroke-width:1.0;stroke-dasharray:7.0,7.0;"/><polygon fill="#000000" points="652.38,536.22,642.6019,535.0416,647.6008,537.6894,644.953,542.6883,652.38,536.22" style="stroke:#000000;stroke-width:1.0;"/><text fill="#000000" font-family="sans-serif" font-size="13" lengthAdjust="spacing" textLength="41" x="554" y="550.4951">include</text></g><!--MD5=[0944f861648d51870b6176276fde213f]
link Login to Home Page--><g id="link_Login_Home Page"><path d="M504.08,522 C535.77,522 581.42,522 620.52,522 " fill="none" id="Login-to-Home Page" style="stroke:#000000;stroke-width:1.0;stroke-dasharray:7.0,7.0;"/><polygon fill="#000000" points="625.75,522,616.75,518,620.75,522,616.75,526,625.75,522" style="stroke:#000000;stroke-width:1.0;"/><text fill="#000000" font-family="sans-serif" font-size="13" lengthAdjust="spacing" textLength="41" x="554" y="518.4951">include</text></g><!--MD5=[4434c4997fcbc5c31e31b8ecd91bb42a]
link Home Page to Stories Section--><g id="link_Home Page_Stories Section"><path d="M707.09,540.41 C743.7,642.71 921.97,1140.82 963.73,1257.51 " fill="none" id="Home Page-to-Stories Section" style="stroke:#000000;stroke-width:1.0;stroke-dasharray:7.0,7.0;"/><polygon fill="#000000" points="965.51,1262.46,966.2462,1252.6387,963.8265,1257.7519,958.7133,1255.3323,965.51,1262.46" style="stroke:#000000;stroke-width:1.0;"/><text fill="#000000" font-family="sans-serif" font-size="13" lengthAdjust="spacing" textLength="41" x="806.5" y="808.4951">include</text></g><!--MD5=[0a0099d46ec4d0c8552dddfea31a8101]
link Home Page to Posts Section--><g id="link_Home Page_Posts Section"><path d="M712.36,540.32 C756.17,607.97 908.84,843.69 957.48,918.81 " fill="none" id="Home Page-to-Posts Section" style="stroke:#000000;stroke-width:1.0;stroke-dasharray:7.0,7.0;"/><polygon fill="#000000" points="960.27,923.11,958.7445,913.38,957.5561,918.9106,952.0255,917.7222,960.27,923.11" style="stroke:#000000;stroke-width:1.0;"/><text fill="#000000" font-family="sans-serif" font-size="13" lengthAdjust="spacing" textLength="41" x="806.5" y="679.4951">include</text></g><!--MD5=[5e4ce2d623b18ac30956e15b403f863b]
reverse link Home Page to Profile Page--><g id="link_Home Page_Profile Page"><path d="M742.41,539.87 C794.98,562.29 884.33,600.4 934.83,621.93 " fill="none" id="Home Page-backto-Profile Page" style="stroke:#000000;stroke-width:1.0;stroke-dasharray:7.0,7.0;"/><polygon fill="#000000" points="737.75,537.89,744.4466,545.1119,742.3457,539.8596,747.598,537.7587,737.75,537.89" style="stroke:#000000;stroke-width:1.0;"/><text fill="#000000" font-family="sans-serif" font-size="13" lengthAdjust="spacing" textLength="46" x="804" y="563.4951">extends</text></g><!--MD5=[2b732e54ffbaafa83177c39c3a58ac33]
reverse link Home Page to Notification Page--><g id="link_Home Page_Notification Page"><path d="M778.19,522 C810.62,522 848.51,522 882.17,522 " fill="none" id="Home Page-backto-Notification Page" style="stroke:#000000;stroke-width:1.0;stroke-dasharray:7.0,7.0;"/><polygon fill="#000000" points="773.03,522,782.03,526,778.03,522,782.03,518,773.03,522" style="stroke:#000000;stroke-width:1.0;"/><text fill="#000000" font-family="sans-serif" font-size="13" lengthAdjust="spacing" textLength="46" x="804" y="518.4951">extends</text></g><!--MD5=[22abda230a46c984e66e89512670b66f]
reverse link Home Page to Search Page--><g id="link_Home Page_Search Page"><path d="M753.46,506.62 C802.45,492.39 874.72,471.4 922.68,457.47 " fill="none" id="Home Page-backto-Search Page" style="stroke:#000000;stroke-width:1.0;stroke-dasharray:7.0,7.0;"/><polygon fill="#000000" points="748.5,508.06,758.2563,509.4068,753.3038,506.6732,756.0374,501.7207,748.5,508.06" style="stroke:#000000;stroke-width:1.0;"/><text fill="#000000" font-family="sans-serif" font-size="13" lengthAdjust="spacing" textLength="46" x="804" y="477.4951">extends</text></g><!--MD5=[cd5065c9ac1086b75bb396e843f17842]
reverse link Home Page to Message Page--><g id="link_Home Page_Message Page"><path d="M725.37,500.79 C778.06,455.84 900.25,351.63 950.4,308.85 " fill="none" id="Home Page-backto-Message Page" style="stroke:#000000;stroke-width:1.0;stroke-dasharray:7.0,7.0;"/><polygon fill="#000000" points="721.39,504.18,730.8377,501.3979,725.1993,500.9413,725.6559,495.3029,721.39,504.18" style="stroke:#000000;stroke-width:1.0;"/><text fill="#000000" font-family="sans-serif" font-size="13" lengthAdjust="spacing" textLength="46" x="804" y="396.4951">extends</text></g><!--MD5=[97b207f44145c9ed1933269da39b03d9]
reverse link Home Page to Create Post Page--><g id="link_Home Page_Create Post Page"><path d="M714.83,499.4 C744.65,452.65 816.05,342.19 881,253 C905.76,219 936.35,180.95 955.14,158 " fill="none" id="Home Page-backto-Create Post Page" style="stroke:#000000;stroke-width:1.0;stroke-dasharray:7.0,7.0;"/><polygon fill="#000000" points="712.07,503.73,720.2801,498.2899,714.7572,499.5135,713.5336,493.9905,712.07,503.73" style="stroke:#000000;stroke-width:1.0;"/><text fill="#000000" font-family="sans-serif" font-size="13" lengthAdjust="spacing" textLength="46" x="804" y="293.4951">extends</text></g><!--MD5=[d3a754c66c882e597c70ba4f49bb7956]
reverse link Profile Page to Management Profile--><g id="link_Profile Page_Management Profile"><path d="M1047.22,628.65 C1093.02,622.76 1152.35,615.13 1200.35,608.95 " fill="none" id="Profile Page-backto-Management Profile" style="stroke:#000000;stroke-width:1.0;stroke-dasharray:7.0,7.0;"/><polygon fill="#000000" points="1041.98,629.32,1051.4117,632.1561,1046.9403,628.691,1050.4053,624.2196,1041.98,629.32" style="stroke:#000000;stroke-width:1.0;"/><text fill="#000000" font-family="sans-serif" font-size="13" lengthAdjust="spacing" textLength="46" x="1097" y="613.4951">extends</text></g><!--MD5=[28af3e4664daae0fbd5d37c3c005b07c]
reverse link Profile Page to Settings--><g id="link_Profile Page_Settings"><path d="M1008.81,657.69 C1032.67,670.77 1065.55,687.57 1096,699 C1143.88,716.98 1200.96,730.75 1239.87,739.05 " fill="none" id="Profile Page-backto-Settings" style="stroke:#000000;stroke-width:1.0;stroke-dasharray:7.0,7.0;"/><polygon fill="#000000" points="1004.16,655.13,1010.1045,662.9826,1008.5368,657.5473,1013.9721,655.9796,1004.16,655.13" style="stroke:#000000;stroke-width:1.0;"/><text fill="#000000" font-family="sans-serif" font-size="13" lengthAdjust="spacing" textLength="46" x="1097" y="695.4951">extends</text></g><!--MD5=[28020d6e40ba37fedca6f46755272c80]
reverse link Profile Page to Badge Section--><g id="link_Profile Page_Badge Section"><path d="M1027.54,653.6 C1048.66,659.15 1073.29,664.81 1096,668 C1130.4,672.83 1168.62,674.87 1201.69,675.59 " fill="none" id="Profile Page-backto-Badge Section" style="stroke:#000000;stroke-width:1.0;stroke-dasharray:7.0,7.0;"/><polygon fill="#000000" points="1022.54,652.27,1030.2077,658.4511,1027.3716,653.5565,1032.2662,650.7204,1022.54,652.27" style="stroke:#000000;stroke-width:1.0;"/><text fill="#000000" font-family="sans-serif" font-size="13" lengthAdjust="spacing" textLength="46" x="1097" y="664.4951">extends</text></g><!--MD5=[92aeedb512229d088ea2e1a80babd56b]
link Badge Section to Statistic Badge--><g id="link_Badge Section_Statistic Badge"><path d="M1371.19,675 C1410.21,675 1456.7,675 1496.48,675 " fill="none" id="Badge Section-to-Statistic Badge" style="stroke:#000000;stroke-width:1.0;stroke-dasharray:7.0,7.0;"/><polygon fill="#000000" points="1501.8,675,1492.8,671,1496.8,675,1492.8,679,1501.8,675" style="stroke:#000000;stroke-width:1.0;"/><text fill="#000000" font-family="sans-serif" font-size="13" lengthAdjust="spacing" textLength="41" x="1430" y="671.4951">include</text></g><!--MD5=[73908a5fef045833ea8656de231a0e64]
reverse link Notification Page to Notification--><g id="link_Notification Page_Notification"><path d="M1069.98,522 C1117.01,522 1172.7,522 1215.68,522 " fill="none" id="Notification Page-backto-Notification" style="stroke:#000000;stroke-width:1.0;stroke-dasharray:7.0,7.0;"/><polygon fill="#000000" points="1064.87,522,1073.87,526,1069.87,522,1073.87,518,1064.87,522" style="stroke:#000000;stroke-width:1.0;"/><text fill="#000000" font-family="sans-serif" font-size="13" lengthAdjust="spacing" textLength="46" x="1097" y="518.4951">extends</text></g><!--MD5=[9ccb63c9003f0c8f9b670ae92f533080]
reverse link Search Page to Searh Bar--><g id="link_Search Page_Searh Bar"><path d="M1033.21,428.09 C1092.15,413.11 1181.89,390.32 1236.94,376.34 " fill="none" id="Search Page-backto-Searh Bar" style="stroke:#000000;stroke-width:1.0;stroke-dasharray:7.0,7.0;"/><polygon fill="#000000" points="1028.32,429.33,1038.0273,430.9941,1033.1665,428.1005,1036.0601,423.2397,1028.32,429.33" style="stroke:#000000;stroke-width:1.0;"/><text fill="#000000" font-family="sans-serif" font-size="13" lengthAdjust="spacing" textLength="46" x="1097" y="398.4951">extends</text></g><!--MD5=[901b59967fe795a5cd96e682f9535ddb]
reverse link Search Page to History Profile Searched--><g id="link_Search Page_History Profile Searched"><path d="M1059.74,443 C1094.92,443 1136.19,443 1173.75,443 " fill="none" id="Search Page-backto-History Profile Searched" style="stroke:#000000;stroke-width:1.0;stroke-dasharray:7.0,7.0;"/><polygon fill="#000000" points="1054.59,443,1063.59,447,1059.59,443,1063.59,439,1054.59,443" style="stroke:#000000;stroke-width:1.0;"/><text fill="#000000" font-family="sans-serif" font-size="13" lengthAdjust="spacing" textLength="46" x="1097" y="439.4951">extends</text></g><!--MD5=[3f5f2d86c8199e27b8f5bd20a04e380f]
reverse link Message Page to List of Last Chats--><g id="link_Message Page_List of Last Chats"><path d="M1037.13,274.69 C1091.57,261.39 1169.96,242.23 1224.05,229.02 " fill="none" id="Message Page-backto-List of Last Chats" style="stroke:#000000;stroke-width:1.0;stroke-dasharray:7.0,7.0;"/><polygon fill="#000000" points="1032.27,275.88,1041.9619,277.6315,1037.1274,274.6942,1040.0646,269.8597,1032.27,275.88" style="stroke:#000000;stroke-width:1.0;"/><text fill="#000000" font-family="sans-serif" font-size="13" lengthAdjust="spacing" textLength="46" x="1097" y="246.4951">extends</text></g><!--MD5=[d34dbc9281819cd5074912cea18a0c9f]
reverse link Message Page to Write a Message--><g id="link_Message Page_Write a Message"><path d="M1063.91,290 C1105.13,290 1153.96,290 1195.28,290 " fill="none" id="Message Page-backto-Write a Message" style="stroke:#000000;stroke-width:1.0;stroke-dasharray:7.0,7.0;"/><polygon fill="#000000" points="1058.66,290,1067.66,294,1063.66,290,1067.66,286,1058.66,290" style="stroke:#000000;stroke-width:1.0;"/><text fill="#000000" font-family="sans-serif" font-size="13" lengthAdjust="spacing" textLength="46" x="1097" y="286.4951">extends</text></g><!--MD5=[e99422a19e3ddfb32196b1fc99aa3756]
link Create Post Page to Upload photo--><g id="link_Create Post Page_Upload photo"><path d="M1037.44,121.82 C1092.2,108.62 1171.05,89.6 1225.06,76.58 " fill="none" id="Create Post Page-to-Upload photo" style="stroke:#000000;stroke-width:1.0;stroke-dasharray:7.0,7.0;"/><polygon fill="#000000" points="1230.21,75.33,1220.5242,73.5451,1225.3486,76.499,1222.3947,81.3234,1230.21,75.33" style="stroke:#000000;stroke-width:1.0;"/><text fill="#000000" font-family="sans-serif" font-size="13" lengthAdjust="spacing" textLength="41" x="1099.5" y="94.4951">include</text></g><!--MD5=[d569f12eeb63f36db459fae4590b5c00]
link Create Post Page to Write a text to post--><g id="link_Create Post Page_Write a text to post"><path d="M1066.13,137 C1103.68,137 1147.25,137 1185.62,137 " fill="none" id="Create Post Page-to-Write a text to post" style="stroke:#000000;stroke-width:1.0;stroke-dasharray:7.0,7.0;"/><polygon fill="#000000" points="1190.75,137,1181.75,133,1185.75,137,1181.75,141,1190.75,137" style="stroke:#000000;stroke-width:1.0;"/><text fill="#000000" font-family="sans-serif" font-size="13" lengthAdjust="spacing" textLength="41" x="1099.5" y="133.4951">include</text></g><!--MD5=[e9aeafd4c843fce457ab77a159050a86]
reverse link Stories Section to Like Story--><g id="link_Stories Section_Like Story"><path d="M1038.24,1297.17 C1096.85,1311.11 1182.53,1331.5 1236.1,1344.24 " fill="none" id="Stories Section-backto-Like Story" style="stroke:#000000;stroke-width:1.0;stroke-dasharray:7.0,7.0;"/><polygon fill="#000000" points="1033.36,1296.01,1041.1919,1301.9817,1038.2246,1297.1655,1043.0408,1294.1982,1033.36,1296.01" style="stroke:#000000;stroke-width:1.0;"/><text fill="#000000" font-family="sans-serif" font-size="13" lengthAdjust="spacing" textLength="46" x="1097" y="1309.4951">extends</text></g><!--MD5=[d184546e2b7665622af318591ea41b84]
reverse link Stories Section to Respond to Story--><g id="link_Stories Section_Respond to Story"><path d="M1065.34,1282 C1106.12,1282 1154.11,1282 1194.86,1282 " fill="none" id="Stories Section-backto-Respond to Story" style="stroke:#000000;stroke-width:1.0;stroke-dasharray:7.0,7.0;"/><polygon fill="#000000" points="1059.89,1282,1068.89,1286,1064.89,1282,1068.89,1278,1059.89,1282" style="stroke:#000000;stroke-width:1.0;"/><text fill="#000000" font-family="sans-serif" font-size="13" lengthAdjust="spacing" textLength="46" x="1097" y="1278.4951">extends</text></g><!--MD5=[3700fa3dc1a4cf169d8cb1fa84a09972]
reverse link Stories Section to Send Story to Someone--><g id="link_Stories Section_Send Story to Someone"><path d="M1036.06,1266.17 C1087.14,1253.03 1159.86,1234.32 1213.61,1220.49 " fill="none" id="Stories Section-backto-Send Story to Someone" style="stroke:#000000;stroke-width:1.0;stroke-dasharray:7.0,7.0;"/><polygon fill="#000000" points="1031.18,1267.42,1040.8918,1269.0572,1036.0231,1266.1771,1038.9032,1261.3083,1031.18,1267.42" style="stroke:#000000;stroke-width:1.0;"/><text fill="#000000" font-family="sans-serif" font-size="13" lengthAdjust="spacing" textLength="46" x="1097" y="1236.4951">extends</text></g><!--MD5=[3a4375cd2544c89ee0f4ae6a5f1f41c1]
reverse link Stories Section to Create a Story--><g id="link_Stories Section_Create a Story"><path d="M1008.32,1303.17 C1047.24,1326.92 1113.58,1365.59 1174,1392 C1192.87,1400.25 1214.21,1407.75 1233.13,1413.81 " fill="none" id="Stories Section-backto-Create a Story" style="stroke:#000000;stroke-width:1.0;stroke-dasharray:7.0,7.0;"/><polygon fill="#000000" points="1003.71,1300.34,1009.2983,1308.45,1007.9746,1302.9501,1013.4745,1301.6265,1003.71,1300.34" style="stroke:#000000;stroke-width:1.0;"/><text fill="#000000" font-family="sans-serif" font-size="13" lengthAdjust="spacing" textLength="46" x="1097" y="1353.4951">extends</text></g><!--MD5=[c8c3fafc145f86c95eec370b97b92e8a]
reverse link Posts Section to Like Post--><g id="link_Posts Section_Like Post"><path d="M1009.75,962.32 C1033.51,975.36 1065.91,991.87 1096,1003 C1141.78,1019.93 1196.02,1032.68 1234.71,1040.6 " fill="none" id="Posts Section-backto-Like Post" style="stroke:#000000;stroke-width:1.0;stroke-dasharray:7.0,7.0;"/><polygon fill="#000000" points="1005.11,959.76,1011.0545,967.6126,1009.4868,962.1773,1014.9221,960.6096,1005.11,959.76" style="stroke:#000000;stroke-width:1.0;"/><text fill="#000000" font-family="sans-serif" font-size="13" lengthAdjust="spacing" textLength="46" x="1097" y="999.4951">extends</text></g><!--MD5=[b8357c5eb9455502adc160daf47c9f41]
reverse link Posts Section to Comment Post--><g id="link_Posts Section_Comment Post"><path d="M1029.48,958.24 C1050.15,963.64 1073.97,969.03 1096,972 C1130.57,976.67 1169,978.33 1202.17,978.67 " fill="none" id="Posts Section-backto-Comment Post" style="stroke:#000000;stroke-width:1.0;stroke-dasharray:7.0,7.0;"/><polygon fill="#000000" points="1024.57,956.94,1032.2548,963.0999,1029.4052,958.2132,1034.2919,955.3636,1024.57,956.94" style="stroke:#000000;stroke-width:1.0;"/><text fill="#000000" font-family="sans-serif" font-size="13" lengthAdjust="spacing" textLength="46" x="1097" y="968.4951">extends</text></g><!--MD5=[24dbbc1b94330c466886d92795850928]
reverse link Posts Section to Repost Post--><g id="link_Posts Section_Repost Post"><path d="M1051.87,932.55 C1103.28,926.27 1170.07,918.1 1219.07,912.12 " fill="none" id="Posts Section-backto-Repost Post" style="stroke:#000000;stroke-width:1.0;stroke-dasharray:7.0,7.0;"/><polygon fill="#000000" points="1046.63,933.19,1056.0526,936.0561,1051.5923,932.5768,1055.0715,928.1165,1046.63,933.19" style="stroke:#000000;stroke-width:1.0;"/><text fill="#000000" font-family="sans-serif" font-size="13" lengthAdjust="spacing" textLength="46" x="1097" y="918.4951">extends</text></g><!--MD5=[e1c0957a89b0f47563cbe29a391a9565]
reverse link Posts Section to Send Post to Someone--><g id="link_Posts Section_Send Post to Someone"><path d="M1021.65,924.05 C1044.14,915.51 1071.44,905.18 1096,896 C1140.84,879.23 1191.74,860.44 1229.49,846.56 " fill="none" id="Posts Section-backto-Send Post to Someone" style="stroke:#000000;stroke-width:1.0;stroke-dasharray:7.0,7.0;"/><polygon fill="#000000" points="1016.92,925.84,1026.755,926.3627,1021.5904,924.0547,1023.8985,918.8901,1016.92,925.84" style="stroke:#000000;stroke-width:1.0;"/><text fill="#000000" font-family="sans-serif" font-size="13" lengthAdjust="spacing" textLength="46" x="1097" y="875.4951">extends</text></g><!--MD5=[000acbc0e1831691e96fe07681fab9ea]
reverse link Posts Section to Report System--><g id="link_Posts Section_Report System"><path d="M998.09,964.32 C1021.76,986.1 1059.81,1019.44 1096,1044 C1128.58,1066.11 1137.85,1070.41 1174,1086 C1193.01,1094.2 1214.47,1101.71 1233.46,1107.8 " fill="none" id="Posts Section-backto-Report System" style="stroke:#000000;stroke-width:1.0;stroke-dasharray:7.0,7.0;"/><polygon fill="#000000" points="994.13,960.66,998.0155,969.71,997.7985,964.0573,1003.4512,963.8404,994.13,960.66" style="stroke:#000000;stroke-width:1.0;"/><text fill="#000000" font-family="sans-serif" font-size="13" lengthAdjust="spacing" textLength="46" x="1097" y="1040.4951">extends</text></g><!--MD5=[dac5adb7239cc2342e5159a66b07b71e]
@startuml gnokky
skinparam usecase {
    FontColor          white
    AttributeFontColor white
    FontSize           17
    AttributeFontSize  15
    AttributeFontname  Droid Sans Mono
    BackgroundColor    #527BC6
    BorderColor        black
    ArrowColor         black
}
left to right direction
:Admin:
:Utente:
rectangle Gnokky{
    Utente - -> (Open application)
    Admin - -> (Watch Report List)

    (Watch Report List) <.. (Ban user) : extends

    (Open application) <.. (Register) : extends
    (Open application) <.. (Login) : extends
    (Open application) <.. (Home Page) : extends
    (Register) ..> (Home Page) : include
    (Login) ..> (Home Page) : include

    (Home Page) ..> (Stories Section) : include
    (Home Page) ..> (Posts Section) : include
    (Home Page) <.. (Profile Page) : extends
    (Home Page) <.. (Notification Page) : extends
    (Home Page) <.. (Search Page) : extends
    (Home Page) <.. (Message Page) : extends
    (Home Page) <.. (Create Post Page) : extends

    (Profile Page) <.. (Management Profile) : extends
    (Profile Page) <.. (Settings) : extends
    (Profile Page) <.. (Badge Section) : extends

    (Badge Section) ..> (Statistic Badge) : include

    (Notification Page) <.. (Notification) : extends

    (Search Page) <.. (Searh Bar) : extends
    (Search Page) <.. (History Profile Searched) : extends

    (Message Page) <.. (List of Last Chats) : extends
    (Message Page) <.. (Write a Message) : extends

    (Create Post Page) ..> (Upload photo) : include
    (Create Post Page) ..> (Write a text to post) : include

    (Stories Section) <.. (Like Story) : extends
    (Stories Section) <.. (Respond to Story) : extends
    (Stories Section) <.. (Send Story to Someone) : extends
    (Stories Section) <.. (Create a Story) : extends

    (Posts Section) <.. (Like Post) : extends
    (Posts Section) <.. (Comment Post) : extends
    (Posts Section) <.. (Repost Post) : extends
    (Posts Section) <.. (Send Post to Someone) : extends
    (Posts Section) <.. (Report System) : extends 
}

@enduml

PlantUML version 1.2022.7(Mon Aug 22 18:01:30 BST 2022)
(GPL source distribution)
Java Runtime: Java(TM) SE Runtime Environment
JVM: Java HotSpot(TM) 64-Bit Server VM
Default Encoding: UTF8
Language: it
Country: CH
--></g></svg>