<?xml version="1.0" encoding="UTF-8" standalone="no"?><svg xmlns="http://www.w3.org/2000/svg" xmlns:xlink="http://www.w3.org/1999/xlink" contentStyleType="text/css" height="1319px" preserveAspectRatio="none" style="width:1686px;height:1319px;background:#FFFFFF;" version="1.1" viewBox="0 0 1686 1319" width="1686px" zoomAndPan="magnify"><defs/><g><!--MD5=[8a590fff8ff314c53773aaff08869084]
cluster Gnokky--><g id="cluster_Gnokky"><rect fill="none" height="1306" rx="2.5" ry="2.5" style="stroke:#181818;stroke-width:1.0;" width="1586" x="94" y="7"/><text fill="#000000" font-family="sans-serif" font-size="14" font-weight="bold" lengthAdjust="spacing" textLength="52" x="861" y="23.5332">Gnokky</text></g><g id="elem_Open application"><ellipse cx="203.5768" cy="443.9154" fill="#527BC6" rx="90.0768" ry="20.4154" style="stroke:#000000;stroke-width:0.5;"/><text fill="#FFFFFF" font-family="sans-serif" font-size="17" lengthAdjust="spacing" textLength="122" x="139.5768" y="449.9891">Open application</text></g><g id="elem_Watch Report List"><ellipse cx="203.4357" cy="198.0871" fill="#527BC6" rx="93.4357" ry="21.0871" style="stroke:#000000;stroke-width:0.5;"/><text fill="#FFFFFF" font-family="sans-serif" font-size="17" lengthAdjust="spacing" textLength="131" x="134.9357" y="204.1609">Watch Report List</text></g><g id="elem_Register"><ellipse cx="459.6733" cy="515.8461" fill="#527BC6" rx="54.6733" ry="18.3461" style="stroke:#000000;stroke-width:0.5;"/><text fill="#FFFFFF" font-family="sans-serif" font-size="17" lengthAdjust="spacing" textLength="60" x="426.6733" y="521.9198">Register</text></g><g id="elem_Login"><ellipse cx="459.3377" cy="444.148" fill="#527BC6" rx="39.8377" ry="18.148" style="stroke:#000000;stroke-width:0.5;"/><text fill="#FFFFFF" font-family="sans-serif" font-size="17" lengthAdjust="spacing" textLength="40" x="437.7539" y="449.7553">Login</text></g><g id="elem_Home Page"><ellipse cx="690.2852" cy="443.9938" fill="#527BC6" rx="73.2852" ry="18.4938" style="stroke:#000000;stroke-width:0.5;"/><text fill="#FFFFFF" font-family="sans-serif" font-size="17" lengthAdjust="spacing" textLength="85" x="644.7852" y="450.0675">Home Page</text></g><g id="elem_Stories Section"><ellipse cx="964.6181" cy="1155.1236" fill="#527BC6" rx="86.1181" ry="19.6236" style="stroke:#000000;stroke-width:0.5;"/><text fill="#FFFFFF" font-family="sans-serif" font-size="17" lengthAdjust="spacing" textLength="111" x="906.1181" y="1161.1973">Stories Section</text></g><g id="elem_Posts Section"><ellipse cx="964.3433" cy="853.8687" fill="#527BC6" rx="82.3433" ry="18.8687" style="stroke:#000000;stroke-width:0.5;"/><text fill="#FFFFFF" font-family="sans-serif" font-size="17" lengthAdjust="spacing" textLength="100" x="911.3433" y="859.9424">Posts Section</text></g><g id="elem_Profile Page"><ellipse cx="964.5084" cy="546.0148" fill="#527BC6" rx="77.0084" ry="18.5148" style="stroke:#000000;stroke-width:0.5;"/><text fill="#FFFFFF" font-family="sans-serif" font-size="17" lengthAdjust="spacing" textLength="90" x="916.5084" y="552.0885">Profile Page</text></g><g id="elem_Notification Page"><ellipse cx="964.3144" cy="444.0629" fill="#527BC6" rx="90.8144" ry="20.5629" style="stroke:#000000;stroke-width:0.5;"/><text fill="#FFFFFF" font-family="sans-serif" font-size="17" lengthAdjust="spacing" textLength="124" x="899.3144" y="450.1366">Notification Page</text></g><g id="elem_Search Page"><ellipse cx="964.5215" cy="365.1043" fill="#527BC6" rx="81.0215" ry="18.6043" style="stroke:#000000;stroke-width:0.5;"/><text fill="#FFFFFF" font-family="sans-serif" font-size="17" lengthAdjust="spacing" textLength="96" x="913.5215" y="371.178">Search Page</text></g><g id="elem_Message Page"><ellipse cx="964.5692" cy="211.9138" fill="#527BC6" rx="85.0692" ry="19.4138" style="stroke:#000000;stroke-width:0.5;"/><text fill="#FFFFFF" font-family="sans-serif" font-size="17" lengthAdjust="spacing" textLength="108" x="907.5692" y="217.9876">Message Page</text></g><g id="elem_Create Post Page"><ellipse cx="964.6806" cy="115.9361" fill="#527BC6" rx="92.6806" ry="20.9361" style="stroke:#000000;stroke-width:0.5;"/><text fill="#FFFFFF" font-family="sans-serif" font-size="17" lengthAdjust="spacing" textLength="129" x="897.1806" y="122.0099">Create Post Page</text></g><g id="elem_Management Profile"><ellipse cx="1277.3468" cy="592.1694" fill="#527BC6" rx="98.8468" ry="22.1694" style="stroke:#000000;stroke-width:0.5;"/><text fill="#FFFFFF" font-family="sans-serif" font-size="17" lengthAdjust="spacing" textLength="145" x="1201.8468" y="598.2431">Management Profile</text></g><g id="elem_Settings"><ellipse cx="1277.6848" cy="515.8299" fill="#527BC6" rx="53.1848" ry="18.3299" style="stroke:#000000;stroke-width:0.5;"/><text fill="#FFFFFF" font-family="sans-serif" font-size="17" lengthAdjust="spacing" textLength="58" x="1245.6848" y="521.9036">Settings</text></g><g id="elem_Badge Section"><ellipse cx="1277.7228" cy="668.8446" fill="#527BC6" rx="84.7228" ry="19.3446" style="stroke:#000000;stroke-width:0.5;"/><text fill="#FFFFFF" font-family="sans-serif" font-size="17" lengthAdjust="spacing" textLength="107" x="1221.2228" y="674.9183">Badge Section</text></g><g id="elem_Statistic Badge"><ellipse cx="1578.4173" cy="668.9835" fill="#527BC6" rx="85.4173" ry="19.4835" style="stroke:#000000;stroke-width:0.5;"/><text fill="#FFFFFF" font-family="sans-serif" font-size="17" lengthAdjust="spacing" textLength="109" x="1520.9173" y="675.0572">Statistic Badge</text></g><g id="elem_Notification"><ellipse cx="1277.3068" cy="443.9754" fill="#527BC6" rx="70.3068" ry="18.4754" style="stroke:#000000;stroke-width:0.5;"/><text fill="#FFFFFF" font-family="sans-serif" font-size="17" lengthAdjust="spacing" textLength="81" x="1233.8068" y="450.0491">Notification</text></g><g id="elem_Searh Bar"><ellipse cx="1277.3396" cy="285.9447" fill="#527BC6" rx="65.8396" ry="18.4447" style="stroke:#000000;stroke-width:0.5;"/><text fill="#FFFFFF" font-family="sans-serif" font-size="17" lengthAdjust="spacing" textLength="75" x="1236.8396" y="292.0184">Searh Bar</text></g><g id="elem_History Profile Searched"><ellipse cx="1277.7388" cy="364.9478" fill="#527BC6" rx="112.7388" ry="24.9478" style="stroke:#000000;stroke-width:0.5;"/><text fill="#FFFFFF" font-family="sans-serif" font-size="17" lengthAdjust="spacing" textLength="179" x="1185.2388" y="371.0215">History Profile Searched</text></g><g id="elem_List of Last Chats"><ellipse cx="1277.5571" cy="136.2114" fill="#527BC6" rx="91.5571" ry="20.7114" style="stroke:#000000;stroke-width:0.5;"/><text fill="#FFFFFF" font-family="sans-serif" font-size="17" lengthAdjust="spacing" textLength="126" x="1211.5571" y="142.2852">List of Last Chats</text></g><g id="elem_Write a Message"><ellipse cx="1277.3144" cy="212.0629" fill="#527BC6" rx="90.8144" ry="20.5629" style="stroke:#000000;stroke-width:0.5;"/><text fill="#FFFFFF" font-family="sans-serif" font-size="17" lengthAdjust="spacing" textLength="124" x="1212.3144" y="218.1366">Write a Message</text></g><g id="elem_Upload photo"><ellipse cx="1277.6956" cy="62.0391" fill="#527BC6" rx="80.6956" ry="18.5391" style="stroke:#000000;stroke-width:0.5;"/><text fill="#FFFFFF" font-family="sans-serif" font-size="17" lengthAdjust="spacing" textLength="95" x="1227.1956" y="68.1129">Upload photo</text></g><g id="elem_Like Story"><ellipse cx="1277.595" cy="1193.9391" fill="#527BC6" rx="65.095" ry="18.4391" style="stroke:#000000;stroke-width:0.5;"/><text fill="#FFFFFF" font-family="sans-serif" font-size="17" lengthAdjust="spacing" textLength="74" x="1237.595" y="1200.0129">Like Story</text></g><g id="elem_Answer to Story"><ellipse cx="1277.3962" cy="1119.9792" fill="#527BC6" rx="87.8962" ry="19.9792" style="stroke:#000000;stroke-width:0.5;"/><text fill="#FFFFFF" font-family="sans-serif" font-size="17" lengthAdjust="spacing" textLength="116" x="1216.3962" y="1126.053">Answer to Story</text></g><g id="elem_Send Story to Someone"><ellipse cx="1277.64" cy="1272.028" fill="#527BC6" rx="110.64" ry="24.528" style="stroke:#000000;stroke-width:0.5;"/><text fill="#FFFFFF" font-family="sans-serif" font-size="17" lengthAdjust="spacing" textLength="174" x="1187.64" y="1278.1017">Send Story to Someone</text></g><g id="elem_Like Post"><ellipse cx="1277.3838" cy="815.8967" fill="#527BC6" rx="59.8838" ry="18.3967" style="stroke:#000000;stroke-width:0.5;"/><text fill="#FFFFFF" font-family="sans-serif" font-size="17" lengthAdjust="spacing" textLength="67" x="1240.8838" y="821.9704">Like Post</text></g><g id="elem_Comment Post"><ellipse cx="1277.3779" cy="742.7756" fill="#527BC6" rx="84.3779" ry="19.2756" style="stroke:#000000;stroke-width:0.5;"/><text fill="#FFFFFF" font-family="sans-serif" font-size="17" lengthAdjust="spacing" textLength="106" x="1221.3779" y="748.8493">Comment Post</text></g><g id="elem_Repost Post"><ellipse cx="1277.2745" cy="1046.0024" fill="#527BC6" rx="74.7745" ry="18.5024" style="stroke:#000000;stroke-width:0.5;"/><text fill="#FFFFFF" font-family="sans-serif" font-size="17" lengthAdjust="spacing" textLength="87" x="1230.7745" y="1052.0762">Repost Post</text></g><g id="elem_Send Post to Someone"><ellipse cx="1277.7311" cy="967.9462" fill="#527BC6" rx="107.7311" ry="23.9462" style="stroke:#000000;stroke-width:0.5;"/><text fill="#FFFFFF" font-family="sans-serif" font-size="17" lengthAdjust="spacing" textLength="167" x="1191.2311" y="974.02">Send Post to Someone</text></g><g id="elem_Report System"><ellipse cx="1277.7228" cy="888.8446" fill="#527BC6" rx="84.7228" ry="19.3446" style="stroke:#000000;stroke-width:0.5;"/><text fill="#FFFFFF" font-family="sans-serif" font-size="17" lengthAdjust="spacing" textLength="107" x="1221.2228" y="894.9183">Report System</text></g><!--MD5=[97ab183161fd5d1db7fba7485cf76add]
entity Admin--><g id="elem_Admin"><ellipse cx="26.5" cy="167.5" fill="#F1F1F1" rx="8" ry="8" style="stroke:#181818;stroke-width:0.5;"/><path d="M26.5,175.5 L26.5,202.5 M13.5,183.5 L39.5,183.5 M26.5,202.5 L13.5,217.5 M26.5,202.5 L39.5,217.5 " fill="none" style="stroke:#181818;stroke-width:0.5;"/><text fill="#000000" font-family="sans-serif" font-size="14" lengthAdjust="spacing" textLength="39" x="7" y="233.5332">Admin</text></g><!--MD5=[51dc34f6dea4a16405cfeb18503da005]
entity Utente--><g id="elem_Utente"><ellipse cx="26.5" cy="413.5" fill="#F1F1F1" rx="8" ry="8" style="stroke:#181818;stroke-width:0.5;"/><path d="M26.5,421.5 L26.5,448.5 M13.5,429.5 L39.5,429.5 M26.5,448.5 L13.5,463.5 M26.5,448.5 L39.5,463.5 " fill="none" style="stroke:#181818;stroke-width:0.5;"/><text fill="#000000" font-family="sans-serif" font-size="14" lengthAdjust="spacing" textLength="41" x="6" y="479.5332">Utente</text></g><!--MD5=[2466c8b60304e468ca49d12cd109dde9]
link Utente to Open application--><g id="link_Utente_Open application"><path d="M47.23,444 C62.53,444 84.93,444 107.99,444 " fill="none" id="Utente-to-Open application" style="stroke:#000000;stroke-width:1.0;"/><polygon fill="#000000" points="113.23,444,104.23,440,108.23,444,104.23,448,113.23,444" style="stroke:#000000;stroke-width:1.0;"/></g><!--MD5=[789acaef0ad1fe8cdfafc07db6013709]
link Admin to Watch Report List--><g id="link_Admin_Watch Report List"><path d="M46.23,198 C60.82,198 82.3,198 104.7,198 " fill="none" id="Admin-to-Watch Report List" style="stroke:#000000;stroke-width:1.0;"/><polygon fill="#000000" points="109.8,198,100.8,194,104.8,198,100.8,202,109.8,198" style="stroke:#000000;stroke-width:1.0;"/></g><!--MD5=[79e65c84ee5db80d211106fed2a5cce1]
reverse link Open application to Register--><g id="link_Open application_Register"><path d="M265.62,461.32 C312.55,474.63 376.08,492.64 417.18,504.29 " fill="none" id="Open application-backto-Register" style="stroke:#000000;stroke-width:1.0;stroke-dasharray:7.0,7.0;"/><polygon fill="#000000" points="260.56,459.89,268.1371,466.1819,265.3724,461.2466,270.3077,458.482,260.56,459.89" style="stroke:#000000;stroke-width:1.0;"/><text fill="#000000" font-family="sans-serif" font-size="13" lengthAdjust="spacing" textLength="46" x="328" y="476.4951">extends</text></g><!--MD5=[28634a6aed9432485a6ec43e6369db91]
reverse link Open application to Login--><g id="link_Open application_Login"><path d="M298.75,444 C340.4,444 387.09,444 419.19,444 " fill="none" id="Open application-backto-Login" style="stroke:#000000;stroke-width:1.0;stroke-dasharray:7.0,7.0;"/><polygon fill="#000000" points="293.69,444,302.69,448,298.69,444,302.69,440,293.69,444" style="stroke:#000000;stroke-width:1.0;"/><text fill="#000000" font-family="sans-serif" font-size="13" lengthAdjust="spacing" textLength="46" x="328" y="440.4951">extends</text></g><!--MD5=[866d5f9068f27a70cf600be37b9ef7f2]
reverse link Open application to Home Page--><g id="link_Open application_Home Page"><path d="M272.52,428.53 C290.21,424.79 309.27,421.01 327,418 C440.92,398.64 473.57,395.92 587,418 C604.57,421.42 623.62,426.01 640.48,430.38 " fill="none" id="Open application-backto-Home Page" style="stroke:#000000;stroke-width:1.0;stroke-dasharray:7.0,7.0;"/><polygon fill="#000000" points="267.58,429.58,277.2155,431.6189,272.4705,428.5392,275.5502,423.7941,267.58,429.58" style="stroke:#000000;stroke-width:1.0;"/><text fill="#000000" font-family="sans-serif" font-size="13" lengthAdjust="spacing" textLength="46" x="436.5" y="399.4951">extends</text></g><!--MD5=[9edf4f8c7b88f2bbfc72ab533a2026ff]
link Register to Home Page--><g id="link_Register_Home Page"><path d="M500.13,503.54 C538.51,491.47 596.87,473.12 638.66,459.98 " fill="none" id="Register-to-Home Page" style="stroke:#000000;stroke-width:1.0;stroke-dasharray:7.0,7.0;"/><polygon fill="#000000" points="643.67,458.41,633.8847,457.2932,638.9001,459.9095,636.2839,464.925,643.67,458.41" style="stroke:#000000;stroke-width:1.0;"/><text fill="#000000" font-family="sans-serif" font-size="13" lengthAdjust="spacing" textLength="41" x="545" y="474.4951">include</text></g><!--MD5=[0944f861648d51870b6176276fde213f]
link Login to Home Page--><g id="link_Login_Home Page"><path d="M499.61,444 C530.29,444 573.98,444 611.72,444 " fill="none" id="Login-to-Home Page" style="stroke:#000000;stroke-width:1.0;stroke-dasharray:7.0,7.0;"/><polygon fill="#000000" points="616.77,444,607.77,440,611.77,444,607.77,448,616.77,444" style="stroke:#000000;stroke-width:1.0;"/><text fill="#000000" font-family="sans-serif" font-size="13" lengthAdjust="spacing" textLength="41" x="545" y="440.4951">include</text></g><!--MD5=[4434c4997fcbc5c31e31b8ecd91bb42a]
link Home Page to Stories Section--><g id="link_Home Page_Stories Section"><path d="M698.64,462.65 C736.3,561.1 911.84,1019.96 954.26,1130.84 " fill="none" id="Home Page-to-Stories Section" style="stroke:#000000;stroke-width:1.0;stroke-dasharray:7.0,7.0;"/><polygon fill="#000000" points="956.06,1135.55,956.5565,1125.7137,954.2622,1130.8844,949.0915,1128.5901,956.06,1135.55" style="stroke:#000000;stroke-width:1.0;"/><text fill="#000000" font-family="sans-serif" font-size="13" lengthAdjust="spacing" textLength="41" x="797.5" y="711.4951">include</text></g><!--MD5=[0a0099d46ec4d0c8552dddfea31a8101]
link Home Page to Posts Section--><g id="link_Home Page_Posts Section"><path d="M703.72,462.41 C747.91,529.02 899.4,757.38 948.21,830.96 " fill="none" id="Home Page-to-Posts Section" style="stroke:#000000;stroke-width:1.0;stroke-dasharray:7.0,7.0;"/><polygon fill="#000000" points="951.01,835.17,949.3613,825.4601,948.2431,831.0054,942.6978,829.8872,951.01,835.17" style="stroke:#000000;stroke-width:1.0;"/><text fill="#000000" font-family="sans-serif" font-size="13" lengthAdjust="spacing" textLength="41" x="797.5" y="597.4951">include</text></g><!--MD5=[5e4ce2d623b18ac30956e15b403f863b]
reverse link Home Page to Profile Page--><g id="link_Home Page_Profile Page"><path d="M737.12,461.11 C788.77,480.48 872.19,511.76 922.05,530.46 " fill="none" id="Home Page-backto-Profile Page" style="stroke:#000000;stroke-width:1.0;stroke-dasharray:7.0,7.0;"/><polygon fill="#000000" points="732.22,459.27,739.2355,466.1825,736.8999,461.0303,742.052,458.6947,732.22,459.27" style="stroke:#000000;stroke-width:1.0;"/><text fill="#000000" font-family="sans-serif" font-size="13" lengthAdjust="spacing" textLength="46" x="795" y="479.4951">extends</text></g><!--MD5=[2b732e54ffbaafa83177c39c3a58ac33]
reverse link Home Page to Notification Page--><g id="link_Home Page_Notification Page"><path d="M769.19,444 C801.62,444 839.51,444 873.17,444 " fill="none" id="Home Page-backto-Notification Page" style="stroke:#000000;stroke-width:1.0;stroke-dasharray:7.0,7.0;"/><polygon fill="#000000" points="764.03,444,773.03,448,769.03,444,773.03,440,764.03,444" style="stroke:#000000;stroke-width:1.0;"/><text fill="#000000" font-family="sans-serif" font-size="13" lengthAdjust="spacing" textLength="46" x="795" y="440.4951">extends</text></g><!--MD5=[22abda230a46c984e66e89512670b66f]
reverse link Home Page to Search Page--><g id="link_Home Page_Search Page"><path d="M744.46,428.62 C793.45,414.39 865.72,393.4 913.68,379.47 " fill="none" id="Home Page-backto-Search Page" style="stroke:#000000;stroke-width:1.0;stroke-dasharray:7.0,7.0;"/><polygon fill="#000000" points="739.5,430.06,749.2563,431.4068,744.3038,428.6732,747.0374,423.7207,739.5,430.06" style="stroke:#000000;stroke-width:1.0;"/><text fill="#000000" font-family="sans-serif" font-size="13" lengthAdjust="spacing" textLength="46" x="795" y="399.4951">extends</text></g><!--MD5=[cd5065c9ac1086b75bb396e843f17842]
reverse link Home Page to Message Page--><g id="link_Home Page_Message Page"><path d="M716.37,422.79 C769.06,377.84 891.25,273.63 941.4,230.85 " fill="none" id="Home Page-backto-Message Page" style="stroke:#000000;stroke-width:1.0;stroke-dasharray:7.0,7.0;"/><polygon fill="#000000" points="712.39,426.18,721.8377,423.3979,716.1993,422.9413,716.6559,417.3029,712.39,426.18" style="stroke:#000000;stroke-width:1.0;"/><text fill="#000000" font-family="sans-serif" font-size="13" lengthAdjust="spacing" textLength="46" x="795" y="318.4951">extends</text></g><!--MD5=[97b207f44145c9ed1933269da39b03d9]
reverse link Home Page to Create Post Page--><g id="link_Home Page_Create Post Page"><path d="M702.82,420.93 C727.95,371.4 792.5,253.06 872,175 C887.91,159.37 908.6,145.62 926.27,135.33 " fill="none" id="Home Page-backto-Create Post Page" style="stroke:#000000;stroke-width:1.0;stroke-dasharray:7.0,7.0;"/><polygon fill="#000000" points="700.51,425.5,708.1365,419.2681,702.7632,421.0365,700.9949,415.6631,700.51,425.5" style="stroke:#000000;stroke-width:1.0;"/><text fill="#000000" font-family="sans-serif" font-size="13" lengthAdjust="spacing" textLength="46" x="795" y="204.4951">extends</text></g><!--MD5=[d3a754c66c882e597c70ba4f49bb7956]
reverse link Profile Page to Management Profile--><g id="link_Profile Page_Management Profile"><path d="M1035.79,556.4 C1082.99,563.38 1145.34,572.6 1194.76,579.91 " fill="none" id="Profile Page-backto-Management Profile" style="stroke:#000000;stroke-width:1.0;stroke-dasharray:7.0,7.0;"/><polygon fill="#000000" points="1030.7,555.64,1039.0227,560.9062,1035.6469,556.3671,1040.186,552.9912,1030.7,555.64" style="stroke:#000000;stroke-width:1.0;"/><text fill="#000000" font-family="sans-serif" font-size="13" lengthAdjust="spacing" textLength="46" x="1088" y="561.4951">extends</text></g><!--MD5=[28af3e4664daae0fbd5d37c3c005b07c]
reverse link Profile Page to Settings--><g id="link_Profile Page_Settings"><path d="M1041.61,538.66 C1099.05,533.12 1176.25,525.67 1226.19,520.85 " fill="none" id="Profile Page-backto-Settings" style="stroke:#000000;stroke-width:1.0;stroke-dasharray:7.0,7.0;"/><polygon fill="#000000" points="1036.46,539.15,1045.7966,542.285,1041.4378,538.6793,1045.0435,534.3205,1036.46,539.15" style="stroke:#000000;stroke-width:1.0;"/><text fill="#000000" font-family="sans-serif" font-size="13" lengthAdjust="spacing" textLength="46" x="1088" y="527.4951">extends</text></g><!--MD5=[28020d6e40ba37fedca6f46755272c80]
reverse link Profile Page to Badge Section--><g id="link_Profile Page_Badge Section"><path d="M1006.34,564.46 C1046.41,582.31 1109.42,609.72 1165,631 C1185.34,638.79 1208.05,646.67 1227.65,653.22 " fill="none" id="Profile Page-backto-Badge Section" style="stroke:#000000;stroke-width:1.0;stroke-dasharray:7.0,7.0;"/><polygon fill="#000000" points="1001.57,562.33,1008.1655,569.6443,1006.1379,564.3633,1011.4189,562.3357,1001.57,562.33" style="stroke:#000000;stroke-width:1.0;"/><text fill="#000000" font-family="sans-serif" font-size="13" lengthAdjust="spacing" textLength="46" x="1088" y="596.4951">extends</text></g><!--MD5=[92aeedb512229d088ea2e1a80babd56b]
link Badge Section to Statistic Badge--><g id="link_Badge Section_Statistic Badge"><path d="M1362.19,669 C1401.21,669 1447.7,669 1487.48,669 " fill="none" id="Badge Section-to-Statistic Badge" style="stroke:#000000;stroke-width:1.0;stroke-dasharray:7.0,7.0;"/><polygon fill="#000000" points="1492.8,669,1483.8,665,1487.8,669,1483.8,673,1492.8,669" style="stroke:#000000;stroke-width:1.0;"/><text fill="#000000" font-family="sans-serif" font-size="13" lengthAdjust="spacing" textLength="41" x="1421" y="665.4951">include</text></g><!--MD5=[73908a5fef045833ea8656de231a0e64]
reverse link Notification Page to Notification--><g id="link_Notification Page_Notification"><path d="M1060.98,444 C1108.01,444 1163.7,444 1206.68,444 " fill="none" id="Notification Page-backto-Notification" style="stroke:#000000;stroke-width:1.0;stroke-dasharray:7.0,7.0;"/><polygon fill="#000000" points="1055.87,444,1064.87,448,1060.87,444,1064.87,440,1055.87,444" style="stroke:#000000;stroke-width:1.0;"/><text fill="#000000" font-family="sans-serif" font-size="13" lengthAdjust="spacing" textLength="46" x="1088" y="440.4951">extends</text></g><!--MD5=[9ccb63c9003f0c8f9b670ae92f533080]
reverse link Search Page to Searh Bar--><g id="link_Search Page_Searh Bar"><path d="M1024.21,350.09 C1083.15,335.11 1172.89,312.32 1227.94,298.34 " fill="none" id="Search Page-backto-Searh Bar" style="stroke:#000000;stroke-width:1.0;stroke-dasharray:7.0,7.0;"/><polygon fill="#000000" points="1019.32,351.33,1029.0273,352.9941,1024.1665,350.1005,1027.0601,345.2397,1019.32,351.33" style="stroke:#000000;stroke-width:1.0;"/><text fill="#000000" font-family="sans-serif" font-size="13" lengthAdjust="spacing" textLength="46" x="1088" y="320.4951">extends</text></g><!--MD5=[901b59967fe795a5cd96e682f9535ddb]
reverse link Search Page to History Profile Searched--><g id="link_Search Page_History Profile Searched"><path d="M1050.74,365 C1085.92,365 1127.19,365 1164.75,365 " fill="none" id="Search Page-backto-History Profile Searched" style="stroke:#000000;stroke-width:1.0;stroke-dasharray:7.0,7.0;"/><polygon fill="#000000" points="1045.59,365,1054.59,369,1050.59,365,1054.59,361,1045.59,365" style="stroke:#000000;stroke-width:1.0;"/><text fill="#000000" font-family="sans-serif" font-size="13" lengthAdjust="spacing" textLength="46" x="1088" y="361.4951">extends</text></g><!--MD5=[3f5f2d86c8199e27b8f5bd20a04e380f]
reverse link Message Page to List of Last Chats--><g id="link_Message Page_List of Last Chats"><path d="M1028.13,196.69 C1082.57,183.39 1160.96,164.23 1215.05,151.02 " fill="none" id="Message Page-backto-List of Last Chats" style="stroke:#000000;stroke-width:1.0;stroke-dasharray:7.0,7.0;"/><polygon fill="#000000" points="1023.27,197.88,1032.9619,199.6315,1028.1274,196.6942,1031.0646,191.8597,1023.27,197.88" style="stroke:#000000;stroke-width:1.0;"/><text fill="#000000" font-family="sans-serif" font-size="13" lengthAdjust="spacing" textLength="46" x="1088" y="168.4951">extends</text></g><!--MD5=[d34dbc9281819cd5074912cea18a0c9f]
reverse link Message Page to Write a Message--><g id="link_Message Page_Write a Message"><path d="M1054.91,212 C1096.13,212 1144.96,212 1186.28,212 " fill="none" id="Message Page-backto-Write a Message" style="stroke:#000000;stroke-width:1.0;stroke-dasharray:7.0,7.0;"/><polygon fill="#000000" points="1049.66,212,1058.66,216,1054.66,212,1058.66,208,1049.66,212" style="stroke:#000000;stroke-width:1.0;"/><text fill="#000000" font-family="sans-serif" font-size="13" lengthAdjust="spacing" textLength="46" x="1088" y="208.4951">extends</text></g><!--MD5=[e99422a19e3ddfb32196b1fc99aa3756]
link Create Post Page to Upload photo--><g id="link_Create Post Page_Upload photo"><path d="M1038.42,103.34 C1089.53,94.46 1157.42,82.68 1207.63,73.96 " fill="none" id="Create Post Page-to-Upload photo" style="stroke:#000000;stroke-width:1.0;stroke-dasharray:7.0,7.0;"/><polygon fill="#000000" points="1212.73,73.07,1203.1777,70.6712,1207.8039,73.9267,1204.5485,78.5529,1212.73,73.07" style="stroke:#000000;stroke-width:1.0;"/><text fill="#000000" font-family="sans-serif" font-size="13" lengthAdjust="spacing" textLength="41" x="1090.5" y="84.4951">include</text></g><!--MD5=[e9aeafd4c843fce457ab77a159050a86]
reverse link Stories Section to Like Story--><g id="link_Stories Section_Like Story"><path d="M1045.15,1164.99 C1098.97,1171.74 1168.85,1180.5 1217.66,1186.62 " fill="none" id="Stories Section-backto-Like Story" style="stroke:#000000;stroke-width:1.0;stroke-dasharray:7.0,7.0;"/><polygon fill="#000000" points="1039.99,1164.34,1048.4298,1169.4164,1044.952,1164.9549,1049.4136,1161.4772,1039.99,1164.34" style="stroke:#000000;stroke-width:1.0;"/><text fill="#000000" font-family="sans-serif" font-size="13" lengthAdjust="spacing" textLength="46" x="1088" y="1168.4951">extends</text></g><!--MD5=[ad424c2319580809d71bc88889bc87e6]
reverse link Stories Section to Answer to Story--><g id="link_Stories Section_Answer to Story"><path d="M1047.04,1145.82 C1093.82,1140.56 1152.24,1133.98 1198.42,1128.79 " fill="none" id="Stories Section-backto-Answer to Story" style="stroke:#000000;stroke-width:1.0;stroke-dasharray:7.0,7.0;"/><polygon fill="#000000" points="1041.98,1146.39,1051.3695,1149.3628,1046.9489,1145.8331,1050.4785,1141.4125,1041.98,1146.39" style="stroke:#000000;stroke-width:1.0;"/><text fill="#000000" font-family="sans-serif" font-size="13" lengthAdjust="spacing" textLength="46" x="1088" y="1133.4951">extends</text></g><!--MD5=[3700fa3dc1a4cf169d8cb1fa84a09972]
reverse link Stories Section to Send Story to Someone--><g id="link_Stories Section_Send Story to Someone"><path d="M1013.16,1173.63 C1035.54,1182.33 1062.61,1192.78 1087,1202 C1131.29,1218.74 1181.56,1237.3 1219.2,1251.09 " fill="none" id="Stories Section-backto-Send Story to Someone" style="stroke:#000000;stroke-width:1.0;stroke-dasharray:7.0,7.0;"/><polygon fill="#000000" points="1008.46,1171.8,1015.3941,1178.7941,1013.1189,1173.615,1018.2981,1171.3398,1008.46,1171.8" style="stroke:#000000;stroke-width:1.0;"/><text fill="#000000" font-family="sans-serif" font-size="13" lengthAdjust="spacing" textLength="46" x="1088" y="1198.4951">extends</text></g><!--MD5=[c8c3fafc145f86c95eec370b97b92e8a]
reverse link Posts Section to Like Post--><g id="link_Posts Section_Like Post"><path d="M1042.6,844.58 C1098.07,837.8 1171.57,828.82 1221.26,822.75 " fill="none" id="Posts Section-backto-Like Post" style="stroke:#000000;stroke-width:1.0;stroke-dasharray:7.0,7.0;"/><polygon fill="#000000" points="1037.63,845.19,1047.0526,848.0561,1042.5923,844.5768,1046.0715,840.1165,1037.63,845.19" style="stroke:#000000;stroke-width:1.0;"/><text fill="#000000" font-family="sans-serif" font-size="13" lengthAdjust="spacing" textLength="46" x="1088" y="830.4951">extends</text></g><!--MD5=[b8357c5eb9455502adc160daf47c9f41]
reverse link Posts Section to Comment Post--><g id="link_Posts Section_Comment Post"><path d="M1012.54,835.87 C1052.83,820.5 1112.49,798.13 1165,780 C1185.53,772.91 1208.28,765.31 1227.84,758.86 " fill="none" id="Posts Section-backto-Comment Post" style="stroke:#000000;stroke-width:1.0;stroke-dasharray:7.0,7.0;"/><polygon fill="#000000" points="1007.72,837.71,1017.555,838.2327,1012.3904,835.9247,1014.6985,830.7601,1007.72,837.71" style="stroke:#000000;stroke-width:1.0;"/><text fill="#000000" font-family="sans-serif" font-size="13" lengthAdjust="spacing" textLength="46" x="1088" y="788.4951">extends</text></g><!--MD5=[24dbbc1b94330c466886d92795850928]
reverse link Posts Section to Repost Post--><g id="link_Posts Section_Repost Post"><path d="M987.41,876.12 C1022.05,909.82 1092.94,973.82 1165,1009 C1184.34,1018.44 1206.67,1026.38 1226.25,1032.46 " fill="none" id="Posts Section-backto-Repost Post" style="stroke:#000000;stroke-width:1.0;stroke-dasharray:7.0,7.0;"/><polygon fill="#000000" points="983.77,872.56,987.3982,881.7162,987.3411,876.0596,992.9976,876.0025,983.77,872.56" style="stroke:#000000;stroke-width:1.0;"/><text fill="#000000" font-family="sans-serif" font-size="13" lengthAdjust="spacing" textLength="46" x="1088" y="958.4951">extends</text></g><!--MD5=[e1c0957a89b0f47563cbe29a391a9565]
reverse link Posts Section to Send Post to Someone--><g id="link_Posts Section_Send Post to Someone"><path d="M1001.35,874.3 C1025.12,887.17 1057.28,903.51 1087,915 C1124.12,929.35 1166.7,941.62 1202.08,950.73 " fill="none" id="Posts Section-backto-Send Post to Someone" style="stroke:#000000;stroke-width:1.0;stroke-dasharray:7.0,7.0;"/><polygon fill="#000000" points="996.72,871.77,1002.7146,879.5844,1001.1122,874.1592,1006.5374,872.5569,996.72,871.77" style="stroke:#000000;stroke-width:1.0;"/><text fill="#000000" font-family="sans-serif" font-size="13" lengthAdjust="spacing" textLength="46" x="1088" y="911.4951">extends</text></g><!--MD5=[000acbc0e1831691e96fe07681fab9ea]
reverse link Posts Section to Report System--><g id="link_Posts Section_Report System"><path d="M1020.48,870.24 C1041.15,875.64 1064.97,881.03 1087,884 C1121.57,888.67 1160,890.33 1193.17,890.67 " fill="none" id="Posts Section-backto-Report System" style="stroke:#000000;stroke-width:1.0;stroke-dasharray:7.0,7.0;"/><polygon fill="#000000" points="1015.57,868.94,1023.2548,875.0999,1020.4052,870.2132,1025.2919,867.3636,1015.57,868.94" style="stroke:#000000;stroke-width:1.0;"/><text fill="#000000" font-family="sans-serif" font-size="13" lengthAdjust="spacing" textLength="46" x="1088" y="880.4951">extends</text></g><!--MD5=[9f3455e31ff41112e5516eda41882586]
@startuml gnokky
skinparam usecase {
    FontColor          white
    AttributeFontColor white
    FontSize           17
    AttributeFontSize  15
    AttributeFontname  Droid Sans Mono
    BackgroundColor    #527BC6
    BorderColor        black
    ArrowColor         black
}
left to right direction
:Admin:
:Utente:
rectangle Gnokky{
    Utente - -> (Open application)
    Admin - -> (Watch Report List)

    (Open application) <.. (Register) : extends
    (Open application) <.. (Login) : extends
    (Open application) <.. (Home Page) : extends
    (Register) ..> (Home Page) : include
    (Login) ..> (Home Page) : include

    (Home Page) ..> (Stories Section) : include
    (Home Page) ..> (Posts Section) : include
    (Home Page) <.. (Profile Page) : extends
    (Home Page) <.. (Notification Page) : extends
    (Home Page) <.. (Search Page) : extends
    (Home Page) <.. (Message Page) : extends
    (Home Page) <.. (Create Post Page) : extends

    (Profile Page) <.. (Management Profile) : extends
    (Profile Page) <.. (Settings) : extends
    (Profile Page) <.. (Badge Section) : extends

    (Badge Section) ..> (Statistic Badge) : include

    (Notification Page) <.. (Notification) : extends

    (Search Page) <.. (Searh Bar) : extends
    (Search Page) <.. (History Profile Searched) : extends

    (Message Page) <.. (List of Last Chats) : extends
    (Message Page) <.. (Write a Message) : extends

    (Create Post Page) ..> (Upload photo) : include

    (Stories Section) <.. (Like Story) : extends
    (Stories Section) <.. (Answer to Story) : extends
    (Stories Section) <.. (Send Story to Someone) : extends

    (Posts Section) <.. (Like Post) : extends
    (Posts Section) <.. (Comment Post) : extends
    (Posts Section) <.. (Repost Post) : extends
    (Posts Section) <.. (Send Post to Someone) : extends
    (Posts Section) <.. (Report System) : extends 
}

@enduml

PlantUML version 1.2022.7(Mon Aug 22 18:01:30 BST 2022)
(GPL source distribution)
Java Runtime: Java(TM) SE Runtime Environment
JVM: Java HotSpot(TM) 64-Bit Server VM
Default Encoding: UTF8
Language: it
Country: CH
--></g></svg>